<?xml version="1.0" encoding="UTF-8" standalone="no"?>
<!DOCTYPE svg PUBLIC "-//W3C//DTD SVG 1.1//EN"
 "http://www.w3.org/Graphics/SVG/1.1/DTD/svg11.dtd">
<!-- Generated by graphviz version 2.38.0 (20140413.2041)
 -->
<!-- Title: %3 Pages: 1 -->
<svg width="450pt" height="576pt"
 viewBox="0.00 0.00 449.59 576.00" xmlns="http://www.w3.org/2000/svg" xmlns:xlink="http://www.w3.org/1999/xlink">
<g id="graph0" class="graph" transform="scale(0.402235 0.402235) rotate(0) translate(486.95 445.53)">
<title>%3</title>
<polygon fill="white" stroke="none" points="-486.95,986.47 -486.95,-445.53 630.775,-445.53 630.775,986.47 -486.95,986.47"/>
<!-- NET&#45;71&#45;0&#45;0&#45;0&#45;0 -->
<g id="node1" class="node"><title>NET&#45;71&#45;0&#45;0&#45;0&#45;0</title>
<polygon fill="none" stroke="black" points="-333.64,103.09 -449.64,103.09 -449.64,139.09 -333.64,139.09 -333.64,103.09"/>
<text text-anchor="middle" x="-391.64" y="124.79" font-family="Times,serif" font-size="14.00">NET&#45;71&#45;0&#45;0&#45;0&#45;0</text>
</g>
<!-- ARIN -->
<g id="node2" class="node"><title>ARIN</title>
<polygon fill="yellow" stroke="black" stroke-width="3" points="-6.3273,-49.182 -54.3273,-31.182 -6.3273,-13.182 41.6727,-31.182 -6.3273,-49.182"/>
<text text-anchor="middle" x="-6.3273" y="-27.482" font-family="Times,serif" font-size="14.00">ARIN</text>
</g>
<!-- NET&#45;71&#45;0&#45;0&#45;0&#45;0&#45;&#45;ARIN -->
<g id="edge1" class="edge"><title>NET&#45;71&#45;0&#45;0&#45;0&#45;0&#45;&#45;ARIN</title>
<path fill="none" stroke="black" d="M-345.93,103.03C-263.4,70.412 -92.295,2.7923 -29.819,-21.898"/>
</g>
<!-- ARIN&#45;HOSTMASTER -->
<g id="node3" class="node"><title>ARIN&#45;HOSTMASTER</title>
<polygon fill="none" stroke="black" stroke-width="3" points="337.35,305.38 190.35,305.38 190.35,341.38 343.35,341.38 343.35,311.38 337.35,305.38"/>
<polyline fill="none" stroke="black" stroke-width="3" points="337.35,305.38 337.35,311.38 "/>
<polyline fill="none" stroke="black" stroke-width="3" points="343.35,311.38 337.35,311.38 "/>
<text text-anchor="middle" x="266.85" y="327.08" font-family="Times,serif" font-size="14.00">ARIN&#45;HOSTMASTER</text>
</g>
<!-- ARIN&#45;&#45;ARIN&#45;HOSTMASTER -->
<g id="edge2" class="edge"><title>ARIN&#45;&#45;ARIN&#45;HOSTMASTER</title>
<path fill="none" stroke="black" d="M4.7198,-16.844C47.841,39.125 204.81,242.86 252.81,305.16"/>
</g>
<!-- NET6&#45;2001&#45;1800&#45;0 -->
<g id="node4" class="node"><title>NET6&#45;2001&#45;1800&#45;0</title>
<polygon fill="none" stroke="black" points="350.15,-343.54 215.15,-343.54 215.15,-307.54 350.15,-307.54 350.15,-343.54"/>
<text text-anchor="middle" x="282.65" y="-321.84" font-family="Times,serif" font-size="14.00">NET6&#45;2001&#45;1800&#45;0</text>
</g>
<!-- ARIN&#45;&#45;NET6&#45;2001&#45;1800&#45;0 -->
<g id="edge3" class="edge"><title>ARIN&#45;&#45;NET6&#45;2001&#45;1800&#45;0</title>
<path fill="none" stroke="black" d="M6.8402,-44.595C53.545,-92.17 211.33,-252.9 264.78,-307.34"/>
</g>
<!-- NET&#45;98&#45;0&#45;0&#45;0&#45;0 -->
<g id="node5" class="node"><title>NET&#45;98&#45;0&#45;0&#45;0&#45;0</title>
<polygon fill="none" stroke="black" points="-98.96,-428.35 -214.96,-428.35 -214.96,-392.35 -98.96,-392.35 -98.96,-428.35"/>
<text text-anchor="middle" x="-156.96" y="-406.65" font-family="Times,serif" font-size="14.00">NET&#45;98&#45;0&#45;0&#45;0&#45;0</text>
</g>
<!-- ARIN&#45;&#45;NET&#45;98&#45;0&#45;0&#45;0&#45;0 -->
<g id="edge4" class="edge"><title>ARIN&#45;&#45;NET&#45;98&#45;0&#45;0&#45;0&#45;0</title>
<path fill="none" stroke="black" d="M-12.608,-46.992C-36.829,-107.96 -124.09,-327.61 -149.79,-392.3"/>
</g>
<!-- NET&#45;96&#45;0&#45;0&#45;0&#45;0 -->
<g id="node6" class="node"><title>NET&#45;96&#45;0&#45;0&#45;0&#45;0</title>
<polygon fill="none" stroke="black" points="82.596,324.37 -33.404,324.37 -33.404,360.37 82.596,360.37 82.596,324.37"/>
<text text-anchor="middle" x="24.596" y="346.07" font-family="Times,serif" font-size="14.00">NET&#45;96&#45;0&#45;0&#45;0&#45;0</text>
</g>
<!-- ARIN&#45;&#45;NET&#45;96&#45;0&#45;0&#45;0&#45;0 -->
<g id="edge5" class="edge"><title>ARIN&#45;&#45;NET&#45;96&#45;0&#45;0&#45;0&#45;0</title>
<path fill="none" stroke="black" d="M-4.8773,-13.666C0.29308,48.791 17.798,260.25 23.077,324.02"/>
</g>
<!-- NET&#45;68&#45;0&#45;0&#45;0&#45;0 -->
<g id="node7" class="node"><title>NET&#45;68&#45;0&#45;0&#45;0&#45;0</title>
<polygon fill="none" stroke="black" points="370.28,-289.37 254.28,-289.37 254.28,-253.37 370.28,-253.37 370.28,-289.37"/>
<text text-anchor="middle" x="312.28" y="-267.67" font-family="Times,serif" font-size="14.00">NET&#45;68&#45;0&#45;0&#45;0&#45;0</text>
</g>
<!-- ARIN&#45;&#45;NET&#45;68&#45;0&#45;0&#45;0&#45;0 -->
<g id="edge6" class="edge"><title>ARIN&#45;&#45;NET&#45;68&#45;0&#45;0&#45;0&#45;0</title>
<path fill="none" stroke="black" d="M9.9106,-43.423C62.156,-82.81 226.11,-206.41 288.16,-253.19"/>
</g>
<!-- NET&#45;69&#45;0&#45;0&#45;0&#45;0 -->
<g id="node8" class="node"><title>NET&#45;69&#45;0&#45;0&#45;0&#45;0</title>
<polygon fill="none" stroke="black" points="-74.02,-82.979 -190.02,-82.979 -190.02,-46.979 -74.02,-46.979 -74.02,-82.979"/>
<text text-anchor="middle" x="-132.02" y="-61.279" font-family="Times,serif" font-size="14.00">NET&#45;69&#45;0&#45;0&#45;0&#45;0</text>
</g>
<!-- ARIN&#45;&#45;NET&#45;69&#45;0&#45;0&#45;0&#45;0 -->
<g id="edge7" class="edge"><title>ARIN&#45;&#45;NET&#45;69&#45;0&#45;0&#45;0&#45;0</title>
<path fill="none" stroke="black" d="M-34.224,-38.683C-45.941,-41.833 -60.034,-45.623 -73.827,-49.331"/>
</g>
<!-- ARINN&#45;ARIN -->
<g id="node9" class="node"><title>ARINN&#45;ARIN</title>
<polygon fill="none" stroke="black" stroke-width="3" points="-121.43,228.78 -218.43,228.78 -218.43,264.78 -115.43,264.78 -115.43,234.78 -121.43,228.78"/>
<polyline fill="none" stroke="black" stroke-width="3" points="-121.43,228.78 -121.43,234.78 "/>
<polyline fill="none" stroke="black" stroke-width="3" points="-115.43,234.78 -121.43,234.78 "/>
<text text-anchor="middle" x="-166.93" y="250.48" font-family="Times,serif" font-size="14.00">ARINN&#45;ARIN</text>
</g>
<!-- ARIN&#45;&#45;ARINN&#45;ARIN -->
<g id="edge8" class="edge"><title>ARIN&#45;&#45;ARINN&#45;ARIN</title>
<path fill="none" stroke="black" d="M-14.962,-16.237C-42.261,31.012 -126.65,177.08 -156.41,228.58"/>
</g>
<!-- NET&#45;66&#45;0&#45;0&#45;0&#45;0 -->
<g id="node10" class="node"><title>NET&#45;66&#45;0&#45;0&#45;0&#45;0</title>
<polygon fill="none" stroke="black" points="392.88,107.11 276.88,107.11 276.88,143.11 392.88,143.11 392.88,107.11"/>
<text text-anchor="middle" x="334.88" y="128.81" font-family="Times,serif" font-size="14.00">NET&#45;66&#45;0&#45;0&#45;0&#45;0</text>
</g>
<!-- ARIN&#45;&#45;NET&#45;66&#45;0&#45;0&#45;0&#45;0 -->
<g id="edge9" class="edge"><title>ARIN&#45;&#45;NET&#45;66&#45;0&#45;0&#45;0&#45;0</title>
<path fill="none" stroke="black" d="M15.275,-21.287C71.528,4.4805 223.18,73.945 295.49,107.07"/>
</g>
<!-- NET&#45;199&#45;0&#45;0&#45;0&#45;0 -->
<g id="node11" class="node"><title>NET&#45;199&#45;0&#45;0&#45;0&#45;0</title>
<polygon fill="none" stroke="black" points="97.903,-276.52 -25.097,-276.52 -25.097,-240.52 97.903,-240.52 97.903,-276.52"/>
<text text-anchor="middle" x="36.403" y="-254.82" font-family="Times,serif" font-size="14.00">NET&#45;199&#45;0&#45;0&#45;0&#45;0</text>
</g>
<!-- ARIN&#45;&#45;NET&#45;199&#45;0&#45;0&#45;0&#45;0 -->
<g id="edge10" class="edge"><title>ARIN&#45;&#45;NET&#45;199&#45;0&#45;0&#45;0&#45;0</title>
<path fill="none" stroke="black" d="M-3.1156,-48.269C4.7451,-90.091 24.897,-197.3 32.977,-240.29"/>
</g>
<!-- NET&#45;52&#45;0&#45;0&#45;0&#45;0 -->
<g id="node12" class="node"><title>NET&#45;52&#45;0&#45;0&#45;0&#45;0</title>
<polygon fill="none" stroke="black" points="204.84,-84.56 88.84,-84.56 88.84,-48.56 204.84,-48.56 204.84,-84.56"/>
<text text-anchor="middle" x="146.84" y="-62.86" font-family="Times,serif" font-size="14.00">NET&#45;52&#45;0&#45;0&#45;0&#45;0</text>
</g>
<!-- ARIN&#45;&#45;NET&#45;52&#45;0&#45;0&#45;0&#45;0 -->
<g id="edge11" class="edge"><title>ARIN&#45;&#45;NET&#45;52&#45;0&#45;0&#45;0&#45;0</title>
<path fill="none" stroke="black" d="M23.569,-38.087C42.113,-42.371 66.563,-48.018 88.795,-53.153"/>
</g>
<!-- NET&#45;70&#45;0&#45;0&#45;0&#45;0 -->
<g id="node13" class="node"><title>NET&#45;70&#45;0&#45;0&#45;0&#45;0</title>
<polygon fill="none" stroke="black" points="-180.06,290.99 -296.06,290.99 -296.06,326.99 -180.06,326.99 -180.06,290.99"/>
<text text-anchor="middle" x="-238.06" y="312.69" font-family="Times,serif" font-size="14.00">NET&#45;70&#45;0&#45;0&#45;0&#45;0</text>
</g>
<!-- ARIN&#45;&#45;NET&#45;70&#45;0&#45;0&#45;0&#45;0 -->
<g id="edge12" class="edge"><title>ARIN&#45;&#45;NET&#45;70&#45;0&#45;0&#45;0&#45;0</title>
<path fill="none" stroke="black" d="M-16.284,-16.565C-53.535,38.118 -184.64,230.58 -225.68,290.82"/>
</g>
<!-- NET6&#45;2600&#45;1 -->
<g id="node14" class="node"><title>NET6&#45;2600&#45;1</title>
<polygon fill="none" stroke="black" points="-107.53,-259.16 -207.53,-259.16 -207.53,-223.16 -107.53,-223.16 -107.53,-259.16"/>
<text text-anchor="middle" x="-157.53" y="-237.46" font-family="Times,serif" font-size="14.00">NET6&#45;2600&#45;1</text>
</g>
<!-- ARIN&#45;&#45;NET6&#45;2600&#45;1 -->
<g id="edge13" class="edge"><title>ARIN&#45;&#45;NET6&#45;2600&#45;1</title>
<path fill="none" stroke="black" d="M-16.72,-45.614C-43.542,-82.862 -115.05,-182.17 -144.54,-223.12"/>
</g>
<!-- NET&#45;12&#45;0&#45;0&#45;0&#45;0 -->
<g id="node15" class="node"><title>NET&#45;12&#45;0&#45;0&#45;0&#45;0</title>
<polygon fill="none" stroke="black" points="240.54,-184.31 124.54,-184.31 124.54,-148.31 240.54,-148.31 240.54,-184.31"/>
<text text-anchor="middle" x="182.54" y="-162.61" font-family="Times,serif" font-size="14.00">NET&#45;12&#45;0&#45;0&#45;0&#45;0</text>
</g>
<!-- ARIN&#45;&#45;NET&#45;12&#45;0&#45;0&#45;0&#45;0 -->
<g id="edge14" class="edge"><title>ARIN&#45;&#45;NET&#45;12&#45;0&#45;0&#45;0&#45;0</title>
<path fill="none" stroke="black" d="M10.433,-43.174C43.655,-66.943 118.03,-120.16 157.24,-148.21"/>
</g>
<!-- NET&#45;76&#45;0&#45;0&#45;0&#45;0 -->
<g id="node16" class="node"><title>NET&#45;76&#45;0&#45;0&#45;0&#45;0</title>
<polygon fill="none" stroke="black" points="78.471,110.46 -37.529,110.46 -37.529,146.46 78.471,146.46 78.471,110.46"/>
<text text-anchor="middle" x="20.471" y="132.16" font-family="Times,serif" font-size="14.00">NET&#45;76&#45;0&#45;0&#45;0&#45;0</text>
</g>
<!-- ARIN&#45;&#45;NET&#45;76&#45;0&#45;0&#45;0&#45;0 -->
<g id="edge15" class="edge"><title>ARIN&#45;&#45;NET&#45;76&#45;0&#45;0&#45;0&#45;0</title>
<path fill="none" stroke="black" d="M-3.4594,-14.097C1.6176,16.147 12.144,78.854 17.378,110.03"/>
</g>
<!-- NET&#45;207&#45;0&#45;0&#45;0&#45;0 -->
<g id="node17" class="node"><title>NET&#45;207&#45;0&#45;0&#45;0&#45;0</title>
<polygon fill="none" stroke="black" points="52.0394,-190.29 -70.9606,-190.29 -70.9606,-154.29 52.0394,-154.29 52.0394,-190.29"/>
<text text-anchor="middle" x="-9.4606" y="-168.59" font-family="Times,serif" font-size="14.00">NET&#45;207&#45;0&#45;0&#45;0&#45;0</text>
</g>
<!-- ARIN&#45;&#45;NET&#45;207&#45;0&#45;0&#45;0&#45;0 -->
<g id="edge16" class="edge"><title>ARIN&#45;&#45;NET&#45;207&#45;0&#45;0&#45;0&#45;0</title>
<path fill="none" stroke="black" d="M-6.7242,-49.054C-7.3236,-76.049 -8.4537,-126.95 -9.0571,-154.12"/>
</g>
<!-- NET&#45;206&#45;0&#45;0&#45;0&#45;0 -->
<g id="node18" class="node"><title>NET&#45;206&#45;0&#45;0&#45;0&#45;0</title>
<polygon fill="none" stroke="black" points="280.29,-400.8 157.29,-400.8 157.29,-364.8 280.29,-364.8 280.29,-400.8"/>
<text text-anchor="middle" x="218.79" y="-379.1" font-family="Times,serif" font-size="14.00">NET&#45;206&#45;0&#45;0&#45;0&#45;0</text>
</g>
<!-- ARIN&#45;&#45;NET&#45;206&#45;0&#45;0&#45;0&#45;0 -->
<g id="edge17" class="edge"><title>ARIN&#45;&#45;NET&#45;206&#45;0&#45;0&#45;0&#45;0</title>
<path fill="none" stroke="black" d="M3.0591,-45.843C38.924,-101.86 167.28,-302.34 206.99,-364.37"/>
</g>
<!-- NET&#45;75&#45;0&#45;0&#45;0&#45;0 -->
<g id="node19" class="node"><title>NET&#45;75&#45;0&#45;0&#45;0&#45;0</title>
<polygon fill="none" stroke="black" points="-322.56,-135.7 -438.56,-135.7 -438.56,-99.7 -322.56,-99.7 -322.56,-135.7"/>
<text text-anchor="middle" x="-380.56" y="-114" font-family="Times,serif" font-size="14.00">NET&#45;75&#45;0&#45;0&#45;0&#45;0</text>
</g>
<!-- ARIN&#45;&#45;NET&#45;75&#45;0&#45;0&#45;0&#45;0 -->
<g id="edge18" class="edge"><title>ARIN&#45;&#45;NET&#45;75&#45;0&#45;0&#45;0&#45;0</title>
<path fill="none" stroke="black" d="M-36.006,-38.043C-97.81,-52.331 -241.29,-85.5 -322.26,-104.22"/>
</g>
<!-- NET&#45;216&#45;0&#45;0&#45;0&#45;0 -->
<g id="node20" class="node"><title>NET&#45;216&#45;0&#45;0&#45;0&#45;0</title>
<polygon fill="none" stroke="black" points="-341.37,-6.204 -464.37,-6.204 -464.37,29.796 -341.37,29.796 -341.37,-6.204"/>
<text text-anchor="middle" x="-402.87" y="15.496" font-family="Times,serif" font-size="14.00">NET&#45;216&#45;0&#45;0&#45;0&#45;0</text>
</g>
<!-- ARIN&#45;&#45;NET&#45;216&#45;0&#45;0&#45;0&#45;0 -->
<g id="edge19" class="edge"><title>ARIN&#45;&#45;NET&#45;216&#45;0&#45;0&#45;0&#45;0</title>
<path fill="none" stroke="black" d="M-43.633,-27.139C-111.98,-19.731 -257.9,-3.9163 -341.2,5.1126"/>
</g>
<!-- NET&#45;204&#45;0&#45;0&#45;0&#45;0 -->
<g id="node21" class="node"><title>NET&#45;204&#45;0&#45;0&#45;0&#45;0</title>
<polygon fill="none" stroke="black" points="-91.28,-371.78 -214.28,-371.78 -214.28,-335.78 -91.28,-335.78 -91.28,-371.78"/>
<text text-anchor="middle" x="-152.78" y="-350.08" font-family="Times,serif" font-size="14.00">NET&#45;204&#45;0&#45;0&#45;0&#45;0</text>
</g>
<!-- ARIN&#45;&#45;NET&#45;204&#45;0&#45;0&#45;0&#45;0 -->
<g id="edge20" class="edge"><title>ARIN&#45;&#45;NET&#45;204&#45;0&#45;0&#45;0&#45;0</title>
<path fill="none" stroke="black" d="M-13.391,-46.742C-37.788,-100.48 -118.44,-278.14 -144.55,-335.64"/>
</g>
<!-- NET&#45;104&#45;0&#45;0&#45;0&#45;0 -->
<g id="node22" class="node"><title>NET&#45;104&#45;0&#45;0&#45;0&#45;0</title>
<polygon fill="none" stroke="black" points="-249.67,-322.47 -372.67,-322.47 -372.67,-286.47 -249.67,-286.47 -249.67,-322.47"/>
<text text-anchor="middle" x="-311.17" y="-300.77" font-family="Times,serif" font-size="14.00">NET&#45;104&#45;0&#45;0&#45;0&#45;0</text>
</g>
<!-- ARIN&#45;&#45;NET&#45;104&#45;0&#45;0&#45;0&#45;0 -->
<g id="edge21" class="edge"><title>ARIN&#45;&#45;NET&#45;104&#45;0&#45;0&#45;0&#45;0</title>
<path fill="none" stroke="black" d="M-20.622,-43.997C-69.943,-88.214 -233.12,-234.5 -290.78,-286.19"/>
</g>
<!-- NET&#45;73&#45;0&#45;0&#45;0&#45;0 -->
<g id="node23" class="node"><title>NET&#45;73&#45;0&#45;0&#45;0&#45;0</title>
<polygon fill="none" stroke="black" points="-198.22,-107.684 -314.22,-107.684 -314.22,-71.684 -198.22,-71.684 -198.22,-107.684"/>
<text text-anchor="middle" x="-256.22" y="-85.984" font-family="Times,serif" font-size="14.00">NET&#45;73&#45;0&#45;0&#45;0&#45;0</text>
</g>
<!-- ARIN&#45;&#45;NET&#45;73&#45;0&#45;0&#45;0&#45;0 -->
<g id="edge22" class="edge"><title>ARIN&#45;&#45;NET&#45;73&#45;0&#45;0&#45;0&#45;0</title>
<path fill="none" stroke="black" d="M-35.975,-38.123C-75.795,-47.445 -147.41,-64.21 -198.16,-76.09"/>
</g>
<!-- NET&#45;13&#45;0&#45;0&#45;0&#45;0 -->
<g id="node24" class="node"><title>NET&#45;13&#45;0&#45;0&#45;0&#45;0</title>
<polygon fill="none" stroke="black" points="364.63,-172.64 248.63,-172.64 248.63,-136.64 364.63,-136.64 364.63,-172.64"/>
<text text-anchor="middle" x="306.63" y="-150.94" font-family="Times,serif" font-size="14.00">NET&#45;13&#45;0&#45;0&#45;0&#45;0</text>
</g>
<!-- ARIN&#45;&#45;NET&#45;13&#45;0&#45;0&#45;0&#45;0 -->
<g id="edge23" class="edge"><title>ARIN&#45;&#45;NET&#45;13&#45;0&#45;0&#45;0&#45;0</title>
<path fill="none" stroke="black" d="M17.195,-40.462C68.867,-60.846 193.06,-109.84 260.75,-136.54"/>
</g>
<!-- NET&#45;100&#45;0&#45;0&#45;0&#45;0 -->
<g id="node25" class="node"><title>NET&#45;100&#45;0&#45;0&#45;0&#45;0</title>
<polygon fill="none" stroke="black" points="334.27,-25.8459 211.27,-25.8459 211.27,10.1541 334.27,10.1541 334.27,-25.8459"/>
<text text-anchor="middle" x="272.77" y="-4.1459" font-family="Times,serif" font-size="14.00">NET&#45;100&#45;0&#45;0&#45;0&#45;0</text>
</g>
<!-- ARIN&#45;&#45;NET&#45;100&#45;0&#45;0&#45;0&#45;0 -->
<g id="edge24" class="edge"><title>ARIN&#45;&#45;NET&#45;100&#45;0&#45;0&#45;0&#45;0</title>
<path fill="none" stroke="black" d="M32.773,-27.913C79.055,-24.043 156.69,-17.551 211.1,-13.002"/>
</g>
<!-- NET6&#45;2001&#45;4800&#45;0 -->
<g id="node26" class="node"><title>NET6&#45;2001&#45;4800&#45;0</title>
<polygon fill="none" stroke="black" points="-260.98,147.13 -395.98,147.13 -395.98,183.13 -260.98,183.13 -260.98,147.13"/>
<text text-anchor="middle" x="-328.48" y="168.83" font-family="Times,serif" font-size="14.00">NET6&#45;2001&#45;4800&#45;0</text>
</g>
<!-- ARIN&#45;&#45;NET6&#45;2001&#45;4800&#45;0 -->
<g id="edge25" class="edge"><title>ARIN&#45;&#45;NET6&#45;2001&#45;4800&#45;0</title>
<path fill="none" stroke="black" d="M-24.571,-20.065C-77.812,12.379 -233.36,107.16 -298.86,147.08"/>
</g>
<!-- NET&#45;64&#45;0&#45;0&#45;0&#45;0 -->
<g id="node27" class="node"><title>NET&#45;64&#45;0&#45;0&#45;0&#45;0</title>
<polygon fill="none" stroke="black" points="421.17,42.387 305.17,42.387 305.17,78.387 421.17,78.387 421.17,42.387"/>
<text text-anchor="middle" x="363.17" y="64.087" font-family="Times,serif" font-size="14.00">NET&#45;64&#45;0&#45;0&#45;0&#45;0</text>
</g>
<!-- ARIN&#45;&#45;NET&#45;64&#45;0&#45;0&#45;0&#45;0 -->
<g id="edge26" class="edge"><title>ARIN&#45;&#45;NET&#45;64&#45;0&#45;0&#45;0&#45;0</title>
<path fill="none" stroke="black" d="M22.667,-23.997C83.403,-8.9453 224.99,26.142 305.15,46.007"/>
</g>
<!-- NET&#45;97&#45;0&#45;0&#45;0&#45;0 -->
<g id="node28" class="node"><title>NET&#45;97&#45;0&#45;0&#45;0&#45;0</title>
<polygon fill="none" stroke="black" points="268.79,118.57 152.79,118.57 152.79,154.57 268.79,154.57 268.79,118.57"/>
<text text-anchor="middle" x="210.79" y="140.27" font-family="Times,serif" font-size="14.00">NET&#45;97&#45;0&#45;0&#45;0&#45;0</text>
</g>
<!-- ARIN&#45;&#45;NET&#45;97&#45;0&#45;0&#45;0&#45;0 -->
<g id="edge27" class="edge"><title>ARIN&#45;&#45;NET&#45;97&#45;0&#45;0&#45;0&#45;0</title>
<path fill="none" stroke="black" d="M9.6377,-18.847C47.537,10.434 143.07,84.242 187.45,118.54"/>
</g>
<!-- NET&#45;108&#45;0&#45;0&#45;0&#45;0 -->
<g id="node29" class="node"><title>NET&#45;108&#45;0&#45;0&#45;0&#45;0</title>
<polygon fill="none" stroke="black" points="437.19,-109.536 314.19,-109.536 314.19,-73.536 437.19,-73.536 437.19,-109.536"/>
<text text-anchor="middle" x="375.69" y="-87.836" font-family="Times,serif" font-size="14.00">NET&#45;108&#45;0&#45;0&#45;0&#45;0</text>
</g>
<!-- ARIN&#45;&#45;NET&#45;108&#45;0&#45;0&#45;0&#45;0 -->
<g id="edge28" class="edge"><title>ARIN&#45;&#45;NET&#45;108&#45;0&#45;0&#45;0&#45;0</title>
<path fill="none" stroke="black" d="M27.574,-36.538C91.942,-46.708 232.68,-68.943 314.13,-81.81"/>
</g>
<!-- NET&#45;50&#45;0&#45;0&#45;0&#45;0 -->
<g id="node30" class="node"><title>NET&#45;50&#45;0&#45;0&#45;0&#45;0</title>
<polygon fill="none" stroke="black" points="458.36,-37.136 342.36,-37.136 342.36,-1.136 458.36,-1.136 458.36,-37.136"/>
<text text-anchor="middle" x="400.36" y="-15.436" font-family="Times,serif" font-size="14.00">NET&#45;50&#45;0&#45;0&#45;0&#45;0</text>
</g>
<!-- ARIN&#45;&#45;NET&#45;50&#45;0&#45;0&#45;0&#45;0 -->
<g id="edge29" class="edge"><title>ARIN&#45;&#45;NET&#45;50&#45;0&#45;0&#45;0&#45;0</title>
<path fill="none" stroke="black" d="M37.97,-29.87C111.77,-27.684 259.9,-23.296 342.08,-20.862"/>
</g>
<!-- NET&#45;209&#45;0&#45;0&#45;0&#45;0 -->
<g id="node31" class="node"><title>NET&#45;209&#45;0&#45;0&#45;0&#45;0</title>
<polygon fill="none" stroke="black" points="-272.58,37.88 -395.58,37.88 -395.58,73.88 -272.58,73.88 -272.58,37.88"/>
<text text-anchor="middle" x="-334.08" y="59.58" font-family="Times,serif" font-size="14.00">NET&#45;209&#45;0&#45;0&#45;0&#45;0</text>
</g>
<!-- ARIN&#45;&#45;NET&#45;209&#45;0&#45;0&#45;0&#45;0 -->
<g id="edge30" class="edge"><title>ARIN&#45;&#45;NET&#45;209&#45;0&#45;0&#45;0&#45;0</title>
<path fill="none" stroke="black" d="M-34.555,-23.684C-87.116,-9.7219 -201.1,20.556 -272.31,39.473"/>
</g>
<!-- NET&#45;184&#45;0&#45;0&#45;0&#45;0 -->
<g id="node32" class="node"><title>NET&#45;184&#45;0&#45;0&#45;0&#45;0</title>
<polygon fill="none" stroke="black" points="448.7,-216.69 325.7,-216.69 325.7,-180.69 448.7,-180.69 448.7,-216.69"/>
<text text-anchor="middle" x="387.2" y="-194.99" font-family="Times,serif" font-size="14.00">NET&#45;184&#45;0&#45;0&#45;0&#45;0</text>
</g>
<!-- ARIN&#45;&#45;NET&#45;184&#45;0&#45;0&#45;0&#45;0 -->
<g id="edge31" class="edge"><title>ARIN&#45;&#45;NET&#45;184&#45;0&#45;0&#45;0&#45;0</title>
<path fill="none" stroke="black" d="M16.244,-40.789C79.937,-67.901 261.83,-145.32 344.9,-180.68"/>
</g>
<!-- NET&#45;45&#45;0&#45;0&#45;0&#45;0 -->
<g id="node33" class="node"><title>NET&#45;45&#45;0&#45;0&#45;0&#45;0</title>
<polygon fill="none" stroke="black" points="149.249,-425.57 33.249,-425.57 33.249,-389.57 149.249,-389.57 149.249,-425.57"/>
<text text-anchor="middle" x="91.249" y="-403.87" font-family="Times,serif" font-size="14.00">NET&#45;45&#45;0&#45;0&#45;0&#45;0</text>
</g>
<!-- ARIN&#45;&#45;NET&#45;45&#45;0&#45;0&#45;0&#45;0 -->
<g id="edge32" class="edge"><title>ARIN&#45;&#45;NET&#45;45&#45;0&#45;0&#45;0&#45;0</title>
<path fill="none" stroke="black" d="M-2.0087,-47.841C13.998,-109.59 69.876,-325.13 86.53,-389.37"/>
</g>
<!-- NET&#45;24&#45;0&#45;0&#45;0&#45;0 -->
<g id="node34" class="node"><title>NET&#45;24&#45;0&#45;0&#45;0&#45;0</title>
<polygon fill="none" stroke="black" points="25.15,-441.53 -90.85,-441.53 -90.85,-405.53 25.15,-405.53 25.15,-441.53"/>
<text text-anchor="middle" x="-32.85" y="-419.83" font-family="Times,serif" font-size="14.00">NET&#45;24&#45;0&#45;0&#45;0&#45;0</text>
</g>
<!-- ARIN&#45;&#45;NET&#45;24&#45;0&#45;0&#45;0&#45;0 -->
<g id="edge33" class="edge"><title>ARIN&#45;&#45;NET&#45;24&#45;0&#45;0&#45;0&#45;0</title>
<path fill="none" stroke="black" d="M-7.5185,-48.803C-11.913,-113.81 -27.192,-339.84 -31.631,-405.51"/>
</g>
<!-- NET&#45;54&#45;0&#45;0&#45;0&#45;0 -->
<g id="node35" class="node"><title>NET&#45;54&#45;0&#45;0&#45;0&#45;0</title>
<polygon fill="none" stroke="black" points="207.12,-355.67 91.12,-355.67 91.12,-319.67 207.12,-319.67 207.12,-355.67"/>
<text text-anchor="middle" x="149.12" y="-333.97" font-family="Times,serif" font-size="14.00">NET&#45;54&#45;0&#45;0&#45;0&#45;0</text>
</g>
<!-- ARIN&#45;&#45;NET&#45;54&#45;0&#45;0&#45;0&#45;0 -->
<g id="edge34" class="edge"><title>ARIN&#45;&#45;NET&#45;54&#45;0&#45;0&#45;0&#45;0</title>
<path fill="none" stroke="black" d="M1.3814,-46.381C27.357,-97.595 111.63,-263.75 139.83,-319.35"/>
</g>
<!-- NET&#45;63&#45;0&#45;0&#45;0&#45;0 -->
<g id="node36" class="node"><title>NET&#45;63&#45;0&#45;0&#45;0&#45;0</title>
<polygon fill="none" stroke="black" points="-41.447,339.19 -157.447,339.19 -157.447,375.19 -41.447,375.19 -41.447,339.19"/>
<text text-anchor="middle" x="-99.447" y="360.89" font-family="Times,serif" font-size="14.00">NET&#45;63&#45;0&#45;0&#45;0&#45;0</text>
</g>
<!-- NET&#45;63&#45;0&#45;0&#45;0&#45;0&#45;&#45;ARIN -->
<g id="edge35" class="edge"><title>NET&#45;63&#45;0&#45;0&#45;0&#45;0&#45;&#45;ARIN</title>
<path fill="none" stroke="black" d="M-95.081,338.98C-79.331,273.29 -25.576,49.098 -10.366,-14.336"/>
</g>
<!-- NET&#45;107&#45;0&#45;0&#45;0&#45;0 -->
<g id="node37" class="node"><title>NET&#45;107&#45;0&#45;0&#45;0&#45;0</title>
<polygon fill="none" stroke="black" points="-222.38,-383.75 -345.38,-383.75 -345.38,-347.75 -222.38,-347.75 -222.38,-383.75"/>
<text text-anchor="middle" x="-283.88" y="-362.05" font-family="Times,serif" font-size="14.00">NET&#45;107&#45;0&#45;0&#45;0&#45;0</text>
</g>
<!-- NET&#45;107&#45;0&#45;0&#45;0&#45;0&#45;&#45;ARIN -->
<g id="edge36" class="edge"><title>NET&#45;107&#45;0&#45;0&#45;0&#45;0&#45;&#45;ARIN</title>
<path fill="none" stroke="black" d="M-268.56,-347.29C-218.67,-287.15 -61.548,-97.746 -17.757,-44.96"/>
</g>
<!-- NET&#45;67&#45;0&#45;0&#45;0&#45;0 -->
<g id="node38" class="node"><title>NET&#45;67&#45;0&#45;0&#45;0&#45;0</title>
<polygon fill="none" stroke="black" points="227.87,26.495 111.87,26.495 111.87,62.495 227.87,62.495 227.87,26.495"/>
<text text-anchor="middle" x="169.87" y="48.195" font-family="Times,serif" font-size="14.00">NET&#45;67&#45;0&#45;0&#45;0&#45;0</text>
</g>
<!-- NET&#45;67&#45;0&#45;0&#45;0&#45;0&#45;&#45;ARIN -->
<g id="edge37" class="edge"><title>NET&#45;67&#45;0&#45;0&#45;0&#45;0&#45;&#45;ARIN</title>
<path fill="none" stroke="black" d="M127.67,26.368C92.644,11.326 44.196,-9.4824 16.173,-21.518"/>
</g>
<!-- NET&#45;99&#45;0&#45;0&#45;0&#45;0 -->
<g id="node39" class="node"><title>NET&#45;99&#45;0&#45;0&#45;0&#45;0</title>
<polygon fill="none" stroke="black" points="-147.67,12.996 -263.67,12.996 -263.67,48.996 -147.67,48.996 -147.67,12.996"/>
<text text-anchor="middle" x="-205.67" y="34.696" font-family="Times,serif" font-size="14.00">NET&#45;99&#45;0&#45;0&#45;0&#45;0</text>
</g>
<!-- NET&#45;99&#45;0&#45;0&#45;0&#45;0&#45;&#45;ARIN -->
<g id="edge38" class="edge"><title>NET&#45;99&#45;0&#45;0&#45;0&#45;0&#45;&#45;ARIN</title>
<path fill="none" stroke="black" d="M-147.74,12.928C-109.69,1.0596 -61.737,-13.899 -32.586,-22.992"/>
</g>
<!-- NET&#45;65&#45;0&#45;0&#45;0&#45;0 -->
<g id="node40" class="node"><title>NET&#45;65&#45;0&#45;0&#45;0&#45;0</title>
<polygon fill="none" stroke="black" points="-233.41,229.02 -349.41,229.02 -349.41,265.02 -233.41,265.02 -233.41,229.02"/>
<text text-anchor="middle" x="-291.41" y="250.72" font-family="Times,serif" font-size="14.00">NET&#45;65&#45;0&#45;0&#45;0&#45;0</text>
</g>
<!-- NET&#45;65&#45;0&#45;0&#45;0&#45;0&#45;&#45;ARIN -->
<g id="edge39" class="edge"><title>NET&#45;65&#45;0&#45;0&#45;0&#45;0&#45;&#45;ARIN</title>
<path fill="none" stroke="black" d="M-272.71,228.76C-219.19,176.54 -66.344,27.385 -19.886,-17.951"/>
</g>
<!-- NET&#45;35&#45;0&#45;0&#45;0&#45;0 -->
<g id="node41" class="node"><title>NET&#45;35&#45;0&#45;0&#45;0&#45;0</title>
<polygon fill="none" stroke="black" points="361.09,170.18 245.09,170.18 245.09,206.18 361.09,206.18 361.09,170.18"/>
<text text-anchor="middle" x="303.09" y="191.88" font-family="Times,serif" font-size="14.00">NET&#45;35&#45;0&#45;0&#45;0&#45;0</text>
</g>
<!-- NET&#45;35&#45;0&#45;0&#45;0&#45;0&#45;&#45;ARIN -->
<g id="edge40" class="edge"><title>NET&#45;35&#45;0&#45;0&#45;0&#45;0&#45;&#45;ARIN</title>
<path fill="none" stroke="black" d="M277.51,170.04C216.12,126.52 61.753,17.083 10.504,-19.25"/>
</g>
<!-- NET6&#45;2610&#45;1 -->
<g id="node42" class="node"><title>NET6&#45;2610&#45;1</title>
<polygon fill="none" stroke="black" points="-71.81,279.45 -171.81,279.45 -171.81,315.45 -71.81,315.45 -71.81,279.45"/>
<text text-anchor="middle" x="-121.81" y="301.15" font-family="Times,serif" font-size="14.00">NET6&#45;2610&#45;1</text>
</g>
<!-- NET6&#45;2610&#45;1&#45;&#45;ARIN -->
<g id="edge41" class="edge"><title>NET6&#45;2610&#45;1&#45;&#45;ARIN</title>
<path fill="none" stroke="black" d="M-115.43,279.31C-95.007,221.18 -31.376,40.101 -11.99,-15.067"/>
</g>
<!-- NET&#45;23&#45;0&#45;0&#45;0&#45;0 -->
<g id="node43" class="node"><title>NET&#45;23&#45;0&#45;0&#45;0&#45;0</title>
<polygon fill="none" stroke="black" points="182.22,280.33 66.22,280.33 66.22,316.33 182.22,316.33 182.22,280.33"/>
<text text-anchor="middle" x="124.22" y="302.03" font-family="Times,serif" font-size="14.00">NET&#45;23&#45;0&#45;0&#45;0&#45;0</text>
</g>
<!-- NET&#45;23&#45;0&#45;0&#45;0&#45;0&#45;&#45;ARIN -->
<g id="edge42" class="edge"><title>NET&#45;23&#45;0&#45;0&#45;0&#45;0&#45;&#45;ARIN</title>
<path fill="none" stroke="black" d="M117.02,280.15C93.87,221.73 21.657,39.452 -0.07715,-15.406"/>
</g>
<!-- NET&#45;32&#45;0&#45;0&#45;0&#45;0 -->
<g id="node44" class="node"><title>NET&#45;32&#45;0&#45;0&#45;0&#45;0</title>
<polygon fill="none" stroke="black" points="54.1511,241.37 -61.8489,241.37 -61.8489,277.37 54.1511,277.37 54.1511,241.37"/>
<text text-anchor="middle" x="-3.8489" y="263.07" font-family="Times,serif" font-size="14.00">NET&#45;32&#45;0&#45;0&#45;0&#45;0</text>
</g>
<!-- NET&#45;32&#45;0&#45;0&#45;0&#45;0&#45;&#45;ARIN -->
<g id="edge43" class="edge"><title>NET&#45;32&#45;0&#45;0&#45;0&#45;0&#45;&#45;ARIN</title>
<path fill="none" stroke="black" d="M-4.004,241.2C-4.4491,189.02 -5.7273,39.158 -6.1724,-13.013"/>
</g>
<!-- NET&#45;174&#45;0&#45;0&#45;0&#45;0 -->
<g id="node45" class="node"><title>NET&#45;174&#45;0&#45;0&#45;0&#45;0</title>
<polygon fill="none" stroke="black" points="-359.95,-80.435 -482.95,-80.435 -482.95,-44.435 -359.95,-44.435 -359.95,-80.435"/>
<text text-anchor="middle" x="-421.45" y="-58.735" font-family="Times,serif" font-size="14.00">NET&#45;174&#45;0&#45;0&#45;0&#45;0</text>
</g>
<!-- NET&#45;174&#45;0&#45;0&#45;0&#45;0&#45;&#45;ARIN -->
<g id="edge44" class="edge"><title>NET&#45;174&#45;0&#45;0&#45;0&#45;0&#45;&#45;ARIN</title>
<path fill="none" stroke="black" d="M-359.75,-57.79C-273.36,-51.286 -118.8,-39.65 -46.139,-34.179"/>
</g>
<!-- ARIN&#45;2 -->
<g id="node46" class="node"><title>ARIN&#45;2</title>
<polygon fill="none" stroke="black" stroke-width="3" points="567.03,410.46 507.039,428.46 567.03,446.46 627.021,428.46 567.03,410.46"/>
<text text-anchor="middle" x="567.03" y="432.16" font-family="Times,serif" font-size="14.00">ARIN&#45;2</text>
</g>
<!-- ARIN&#45;2&#45;&#45;ARIN&#45;HOSTMASTER -->
<g id="edge45" class="edge"><title>ARIN&#45;2&#45;&#45;ARIN&#45;HOSTMASTER</title>
<path fill="none" stroke="black" d="M539.33,418.77C489.11,401.19 382.33,363.81 318.37,341.41"/>
</g>
<!-- NET6&#45;2620&#45;1 -->
<g id="node47" class="node"><title>NET6&#45;2620&#45;1</title>
<polygon fill="none" stroke="black" points="16.829,-344.53 -83.171,-344.53 -83.171,-308.53 16.829,-308.53 16.829,-344.53"/>
<text text-anchor="middle" x="-33.171" y="-322.83" font-family="Times,serif" font-size="14.00">NET6&#45;2620&#45;1</text>
</g>
<!-- NET6&#45;2620&#45;1&#45;&#45;ARIN -->
<g id="edge46" class="edge"><title>NET6&#45;2620&#45;1&#45;&#45;ARIN</title>
<path fill="none" stroke="black" d="M-31.532,-308.5C-26.717,-255.52 -12.654,-100.8 -7.9108,-48.605"/>
</g>
<!-- NET&#45;173&#45;0&#45;0&#45;0&#45;0 -->
<g id="node48" class="node"><title>NET&#45;173&#45;0&#45;0&#45;0&#45;0</title>
<polygon fill="none" stroke="black" points="149.785,179.16 26.785,179.16 26.785,215.16 149.785,215.16 149.785,179.16"/>
<text text-anchor="middle" x="88.285" y="200.86" font-family="Times,serif" font-size="14.00">NET&#45;173&#45;0&#45;0&#45;0&#45;0</text>
</g>
<!-- NET&#45;173&#45;0&#45;0&#45;0&#45;0&#45;&#45;ARIN -->
<g id="edge47" class="edge"><title>NET&#45;173&#45;0&#45;0&#45;0&#45;0&#45;&#45;ARIN</title>
<path fill="none" stroke="black" d="M80.702,178.86C62.592,135.15 17.071,25.29 0.1446,-15.562"/>
</g>
<!-- NET&#45;208&#45;0&#45;0&#45;0&#45;0 -->
<g id="node49" class="node"><title>NET&#45;208&#45;0&#45;0&#45;0&#45;0</title>
<polygon fill="none" stroke="black" points="279.88,223.2 156.88,223.2 156.88,259.2 279.88,259.2 279.88,223.2"/>
<text text-anchor="middle" x="218.38" y="244.9" font-family="Times,serif" font-size="14.00">NET&#45;208&#45;0&#45;0&#45;0&#45;0</text>
</g>
<!-- NET&#45;208&#45;0&#45;0&#45;0&#45;0&#45;&#45;ARIN -->
<g id="edge48" class="edge"><title>NET&#45;208&#45;0&#45;0&#45;0&#45;0&#45;&#45;ARIN</title>
<path fill="none" stroke="black" d="M203.29,222.9C161.07,171.73 42.438,27.929 5.0841,-17.35"/>
</g>
<!-- NET&#45;205&#45;0&#45;0&#45;0&#45;0 -->
<g id="node50" class="node"><title>NET&#45;205&#45;0&#45;0&#45;0&#45;0</title>
<polygon fill="none" stroke="black" points="-304.66,-277.33 -427.66,-277.33 -427.66,-241.33 -304.66,-241.33 -304.66,-277.33"/>
<text text-anchor="middle" x="-366.16" y="-255.63" font-family="Times,serif" font-size="14.00">NET&#45;205&#45;0&#45;0&#45;0&#45;0</text>
</g>
<!-- NET&#45;205&#45;0&#45;0&#45;0&#45;0&#45;&#45;ARIN -->
<g id="edge49" class="edge"><title>NET&#45;205&#45;0&#45;0&#45;0&#45;0&#45;&#45;ARIN</title>
<path fill="none" stroke="black" d="M-337.63,-241.24C-266.48,-196.13 -82.773,-79.652 -24.409,-42.646"/>
</g>
<!-- NET&#45;47&#45;0&#45;0&#45;0&#45;0 -->
<g id="node51" class="node"><title>NET&#45;47&#45;0&#45;0&#45;0&#45;0</title>
<polygon fill="none" stroke="black" points="-336.51,-207.76 -452.51,-207.76 -452.51,-171.76 -336.51,-171.76 -336.51,-207.76"/>
<text text-anchor="middle" x="-394.51" y="-186.06" font-family="Times,serif" font-size="14.00">NET&#45;47&#45;0&#45;0&#45;0&#45;0</text>
</g>
<!-- NET&#45;47&#45;0&#45;0&#45;0&#45;0&#45;&#45;ARIN -->
<g id="edge50" class="edge"><title>NET&#45;47&#45;0&#45;0&#45;0&#45;0&#45;&#45;ARIN</title>
<path fill="none" stroke="black" d="M-350.36,-171.73C-267.69,-137.96 -92.244,-66.281 -29.357,-40.591"/>
</g>
<!-- NET&#45;40&#45;0&#45;0&#45;0&#45;0 -->
<g id="node52" class="node"><title>NET&#45;40&#45;0&#45;0&#45;0&#45;0</title>
<polygon fill="none" stroke="black" points="-205.98,-215.14 -321.98,-215.14 -321.98,-179.14 -205.98,-179.14 -205.98,-215.14"/>
<text text-anchor="middle" x="-263.98" y="-193.44" font-family="Times,serif" font-size="14.00">NET&#45;40&#45;0&#45;0&#45;0&#45;0</text>
</g>
<!-- NET&#45;40&#45;0&#45;0&#45;0&#45;0&#45;&#45;ARIN -->
<g id="edge51" class="edge"><title>NET&#45;40&#45;0&#45;0&#45;0&#45;0&#45;&#45;ARIN</title>
<path fill="none" stroke="black" d="M-235.91,-179.06C-182.57,-144.7 -67.946,-70.871 -23.987,-42.557"/>
</g>
<!-- NET6&#45;2001&#45;400&#45;0 -->
<g id="node53" class="node"><title>NET6&#45;2001&#45;400&#45;0</title>
<polygon fill="none" stroke="black" points="-45.64,102.88 -173.64,102.88 -173.64,138.88 -45.64,138.88 -45.64,102.88"/>
<text text-anchor="middle" x="-109.64" y="124.58" font-family="Times,serif" font-size="14.00">NET6&#45;2001&#45;400&#45;0</text>
</g>
<!-- NET6&#45;2001&#45;400&#45;0&#45;&#45;ARIN -->
<g id="edge52" class="edge"><title>NET6&#45;2001&#45;400&#45;0&#45;&#45;ARIN</title>
<path fill="none" stroke="black" d="M-97.386,102.84C-76.647,72.314 -35.047,11.088 -16.114,-16.778"/>
</g>
<!-- NET&#45;74&#45;0&#45;0&#45;0&#45;0 -->
<g id="node54" class="node"><title>NET&#45;74&#45;0&#45;0&#45;0&#45;0</title>
<polygon fill="none" stroke="black" points="-136.97,156.6 -252.97,156.6 -252.97,192.6 -136.97,192.6 -136.97,156.6"/>
<text text-anchor="middle" x="-194.97" y="178.3" font-family="Times,serif" font-size="14.00">NET&#45;74&#45;0&#45;0&#45;0&#45;0</text>
</g>
<!-- NET&#45;74&#45;0&#45;0&#45;0&#45;0&#45;&#45;ARIN -->
<g id="edge53" class="edge"><title>NET&#45;74&#45;0&#45;0&#45;0&#45;0&#45;&#45;ARIN</title>
<path fill="none" stroke="black" d="M-178.23,156.34C-140.9,115.62 -51.544,18.145 -18.707,-17.677"/>
</g>
<!-- NET&#45;72&#45;0&#45;0&#45;0&#45;0 -->
<g id="node55" class="node"><title>NET&#45;72&#45;0&#45;0&#45;0&#45;0</title>
<polygon fill="none" stroke="black" points="221.97,-258.92 105.97,-258.92 105.97,-222.92 221.97,-222.92 221.97,-258.92"/>
<text text-anchor="middle" x="163.97" y="-237.22" font-family="Times,serif" font-size="14.00">NET&#45;72&#45;0&#45;0&#45;0&#45;0</text>
</g>
<!-- NET&#45;72&#45;0&#45;0&#45;0&#45;0&#45;&#45;ARIN -->
<g id="edge54" class="edge"><title>NET&#45;72&#45;0&#45;0&#45;0&#45;0&#45;&#45;ARIN</title>
<path fill="none" stroke="black" d="M149.16,-222.67C115.65,-181.41 34.672,-81.676 4.8989,-45.008"/>
</g>
<!-- ETC&#45;1 -->
<g id="node56" class="node"><title>ETC&#45;1</title>
<polygon fill="none" stroke="black" stroke-width="3" points="175.02,657.29 123.52,675.29 175.02,693.29 226.52,675.29 175.02,657.29"/>
<text text-anchor="middle" x="175.02" y="678.99" font-family="Times,serif" font-size="14.00">ETC&#45;1</text>
</g>
<!-- ETC&#45;1&#45;&#45;ARIN&#45;HOSTMASTER -->
<g id="edge55" class="edge"><title>ETC&#45;1&#45;&#45;ARIN&#45;HOSTMASTER</title>
<path fill="none" stroke="black" d="M179.33,658.79C194.61,600.22 246.18,402.58 262.12,341.51"/>
</g>
<!-- NET&#45;138&#45;34&#45;0&#45;0&#45;1 -->
<g id="node57" class="node"><title>NET&#45;138&#45;34&#45;0&#45;0&#45;1</title>
<polygon fill="none" stroke="black" points="122.038,946.47 -8.962,946.47 -8.962,982.47 122.038,982.47 122.038,946.47"/>
<text text-anchor="middle" x="56.538" y="968.17" font-family="Times,serif" font-size="14.00">NET&#45;138&#45;34&#45;0&#45;0&#45;1</text>
</g>
<!-- ETC&#45;1&#45;&#45;NET&#45;138&#45;34&#45;0&#45;0&#45;1 -->
<g id="edge56" class="edge"><title>ETC&#45;1&#45;&#45;NET&#45;138&#45;34&#45;0&#45;0&#45;1</title>
<path fill="none" stroke="black" d="M168.48,691.25C148.06,741.1 85.535,893.7 63.955,946.37"/>
</g>
</g>
</svg>
