<?xml version="1.0" encoding="UTF-8" standalone="no"?>
<!DOCTYPE svg PUBLIC "-//W3C//DTD SVG 1.1//EN"
 "http://www.w3.org/Graphics/SVG/1.1/DTD/svg11.dtd">
<!-- Generated by graphviz version 2.38.0 (20140413.2041)
 -->
<!-- Title: %3 Pages: 1 -->
<svg width="541pt" height="576pt"
 viewBox="0.00 0.00 541.24 576.00" xmlns="http://www.w3.org/2000/svg" xmlns:xlink="http://www.w3.org/1999/xlink">
<g id="graph0" class="graph" transform="scale(1.24076 1.24076) rotate(0) translate(219.395 206.31)">
<title>%3</title>
<polygon fill="white" stroke="none" points="-219.395,257.92 -219.395,-206.31 216.82,-206.31 216.82,257.92 -219.395,257.92"/>
<!-- ARIN -->
<g id="node1" class="node"><title>ARIN</title>
<g id="a_node1"><a xlink:title="Count for http://whois.arin.net/rest/org/ARIN/nets exceeded threshold: 51">
<polygon fill="lightgray" stroke="black" stroke-width="3" points="-16.626,97.33 -64.626,115.33 -16.626,133.33 31.374,115.33 -16.626,97.33"/>
<text text-anchor="middle" x="-16.626" y="119.03" font-family="Times,serif" font-size="14.00">ARIN</text>
</a>
</g>
</g>
<!-- ARINN&#45;ARIN -->
<g id="node2" class="node"><title>ARINN&#45;ARIN</title>
<polygon fill="none" stroke="black" stroke-width="3" points="42.9125,217.92 -54.0875,217.92 -54.0875,253.92 48.9125,253.92 48.9125,223.92 42.9125,217.92"/>
<polyline fill="none" stroke="black" stroke-width="3" points="42.9125,217.92 42.9125,223.92 "/>
<polyline fill="none" stroke="black" stroke-width="3" points="48.9125,223.92 42.9125,223.92 "/>
<text text-anchor="middle" x="-2.5875" y="239.62" font-family="Times,serif" font-size="14.00">ARINN&#45;ARIN</text>
</g>
<!-- ARIN&#45;&#45;ARINN&#45;ARIN -->
<g id="edge1" class="edge"><title>ARIN&#45;&#45;ARINN&#45;ARIN</title>
<path fill="none" stroke="black" d="M-14.615,132.61C-11.976,155.27 -7.3682,194.85 -4.6869,217.89"/>
</g>
<!-- ARIN&#45;HOSTMASTER -->
<g id="node3" class="node"><title>ARIN&#45;HOSTMASTER</title>
<polygon fill="none" stroke="black" stroke-width="3" points="37.339,-29.844 -109.661,-29.844 -109.661,6.156 43.339,6.156 43.339,-23.844 37.339,-29.844"/>
<polyline fill="none" stroke="black" stroke-width="3" points="37.339,-29.844 37.339,-23.844 "/>
<polyline fill="none" stroke="black" stroke-width="3" points="43.339,-23.844 37.339,-23.844 "/>
<text text-anchor="middle" x="-33.161" y="-8.144" font-family="Times,serif" font-size="14.00">ARIN&#45;HOSTMASTER</text>
</g>
<!-- ARIN&#45;&#45;ARIN&#45;HOSTMASTER -->
<g id="edge2" class="edge"><title>ARIN&#45;&#45;ARIN&#45;HOSTMASTER</title>
<path fill="none" stroke="black" d="M-18.891,97.916C-22.022,73.834 -27.645,30.583 -30.818,6.1826"/>
</g>
<!-- ARIN&#45;2 -->
<g id="node4" class="node"><title>ARIN&#45;2</title>
<polygon fill="none" stroke="black" stroke-width="3" points="-155.65,-73.848 -215.641,-55.848 -155.65,-37.848 -95.6585,-55.848 -155.65,-73.848"/>
<text text-anchor="middle" x="-155.65" y="-52.148" font-family="Times,serif" font-size="14.00">ARIN&#45;2</text>
</g>
<!-- ARIN&#45;HOSTMASTER&#45;&#45;ARIN&#45;2 -->
<g id="edge3" class="edge"><title>ARIN&#45;HOSTMASTER&#45;&#45;ARIN&#45;2</title>
<path fill="none" stroke="black" d="M-83.335,-29.869C-98.663,-35.375 -114.95,-41.226 -128.17,-45.978"/>
</g>
<!-- ETC&#45;1 -->
<g id="node5" class="node"><title>ETC&#45;1</title>
<polygon fill="none" stroke="black" stroke-width="3" points="60.702,-117.245 9.202,-99.245 60.702,-81.245 112.202,-99.245 60.702,-117.245"/>
<text text-anchor="middle" x="60.702" y="-95.545" font-family="Times,serif" font-size="14.00">ETC&#45;1</text>
</g>
<!-- ETC&#45;1&#45;&#45;ARIN&#45;HOSTMASTER -->
<g id="edge4" class="edge"><title>ETC&#45;1&#45;&#45;ARIN&#45;HOSTMASTER</title>
<path fill="none" stroke="black" d="M46.446,-85.971C30.445,-71.072 4.3843,-46.804 -13.534,-30.119"/>
</g>
<!-- NET&#45;138&#45;34&#45;0&#45;0&#45;1 -->
<g id="node6" class="node"><title>NET&#45;138&#45;34&#45;0&#45;0&#45;1</title>
<polygon fill="none" stroke="black" points="212.82,-202.31 81.82,-202.31 81.82,-166.31 212.82,-166.31 212.82,-202.31"/>
<text text-anchor="middle" x="147.32" y="-180.61" font-family="Times,serif" font-size="14.00">NET&#45;138&#45;34&#45;0&#45;0&#45;1</text>
</g>
<!-- ETC&#45;1&#45;&#45;NET&#45;138&#45;34&#45;0&#45;0&#45;1 -->
<g id="edge5" class="edge"><title>ETC&#45;1&#45;&#45;NET&#45;138&#45;34&#45;0&#45;0&#45;1</title>
<path fill="none" stroke="black" d="M74.237,-112.54C88.892,-126.93 112.36,-149.98 128.74,-166.06"/>
</g>
</g>
</svg>
